<?xml version="1.0" encoding="UTF-8"?><svg id="Layer_2" xmlns="http://www.w3.org/2000/svg" viewBox="0 0 131.67 131.67"><defs><style>.cls-1{fill:#ff4e00;}</style></defs><g id="Layer_1-2"><path d="M47.4,0h-2.63c-1.45,0-2.63,1.18-2.63,2.63s1.18,2.63,2.63,2.63h2.63V0Z"/><path d="M47.4,5.27h2.63c1.45,0,2.63-1.18,2.63-2.63S51.49,0,50.03,0h-2.63v5.27Z"/><path d="M73.73,2.64c0,1.45,1.18,2.63,2.63,2.63h0c1.45,0,2.63-1.18,2.63-2.63S77.82,0,76.37,0h0c-1.45,0-2.63,1.18-2.63,2.63Z"/><path d="M84.27,2.64c0,1.45,1.18,2.63,2.63,2.63h0c1.45,0,2.63-1.18,2.63-2.63S88.35,0,86.9,0h0c-1.45,0-2.63,1.18-2.63,2.63Z"/><path d="M65.83,10.54h2.63v-2.63c0,1.45-1.18,2.63-2.63,2.63Z"/><path d="M73.73,10.54v-2.63c0-1.45-1.18-2.63-2.63-2.63s-2.63,1.18-2.63,2.63h0v2.63h5.27Z"/><path d="M84.27,10.54v-2.63c0-1.45-1.18-2.63-2.63-2.63s-2.63,1.18-2.63,2.63h0v2.63h5.27Z"/><path d="M84.27,7.9v2.63h2.63c-1.45,0-2.63-1.18-2.63-2.63Z"/><path d="M47.4,15.8v-2.63c0-1.45-1.18-2.63-2.63-2.63s-2.63,1.18-2.63,2.63h0v2.63h5.27Z"/><path d="M47.4,13.17v2.63h2.63c-1.45,0-2.63-1.18-2.63-2.63Z"/><path d="M57.93,13.17v2.63h5.27v-5.27h-2.63c-1.45,0-2.63,1.18-2.63,2.63Z"/><rect x="63.2" y="10.54" width="5.27" height="5.27"/><rect x="68.47" y="10.54" width="5.27" height="5.27"/><rect x="79" y="10.54" width="5.27" height="5.27"/><path d="M89.53,13.17v2.63h-5.27v-5.27h2.63c1.45,0,2.63,1.18,2.63,2.63Z"/><rect x="42.14" y="15.8" width="5.27" height="5.27"/><path d="M52.67,18.44v2.63h-5.27v-5.27h2.63c1.45,0,2.63,1.18,2.63,2.63Z"/><path d="M55.3,21.07h2.63v-2.63c0,1.45-1.18,2.63-2.63,2.63Z"/><path d="M52.67,18.44v2.63h2.63c-1.45,0-2.63-1.18-2.63-2.63Z"/><rect x="57.93" y="15.8" width="5.27" height="5.27"/><path d="M63.2,18.44v-2.63h2.63c-1.45,0-2.63,1.18-2.63,2.63Z"/><path d="M68.47,18.44v-2.63h-2.63c1.45,0,2.63,1.18,2.63,2.63Z"/><path d="M68.47,15.8v2.63c0,1.45,1.18,2.63,2.63,2.63s2.63-1.18,2.63-2.63h0v-2.63h-5.27Z"/><path d="M81.63,21.07h2.63v-5.27h-5.27v2.63c0,1.45,1.18,2.63,2.63,2.63Z"/><rect x="84.27" y="15.8" width="5.27" height="5.27"/><path d="M44.77,26.34h2.63v-5.27h-5.27v2.63c0,1.45,1.18,2.63,2.63,2.63Z"/><rect x="47.4" y="21.07" width="5.27" height="5.27"/><rect x="52.67" y="21.07" width="5.27" height="5.27"/><path d="M60.57,26.34h-2.63v-5.27h5.27v2.63c0,1.45-1.18,2.63-2.63,2.63Z"/><path d="M79,26.34v-2.63c0-1.45-1.18-2.63-2.63-2.63s-2.63,1.18-2.63,2.63h0v2.63h5.27Z"/><path d="M84.27,23.7v-2.63h-2.63c1.45,0,2.63,1.18,2.63,2.63Z"/><rect x="84.27" y="21.07" width="5.27" height="5.27"/><path d="M47.4,28.97v-2.63h-2.63c1.45,0,2.63,1.18,2.63,2.63Z"/><path d="M47.4,26.34v2.63c0,1.45,1.18,2.63,2.63,2.63s2.63-1.18,2.63-2.63h0v-2.63h-5.27Z"/><path d="M52.67,28.97v-2.63h2.63c-1.45,0-2.63,1.18-2.63,2.63Z"/><path d="M68.47,31.6v-2.63c0-1.45-1.18-2.63-2.63-2.63s-2.63,1.18-2.63,2.63h0v2.63h5.27Z"/><rect x="73.73" y="26.34" width="5.27" height="5.27"/><rect x="84.27" y="26.34" width="5.27" height="5.27"/><path d="M42.14,34.24c0,1.45,1.18,2.63,2.63,2.63h0c1.45,0,2.63-1.18,2.63-2.63s-1.18-2.63-2.63-2.63h0c-1.45,0-2.63,1.18-2.63,2.63Z"/><path d="M52.67,34.24c0,1.45,1.18,2.63,2.63,2.63h0c1.45,0,2.63-1.18,2.63-2.63s-1.18-2.63-2.63-2.63h0c-1.45,0-2.63,1.18-2.63,2.63Z"/><path d="M63.2,31.6v2.63c0,1.45,1.18,2.63,2.63,2.63s2.63-1.18,2.63-2.63h0v-2.63h-5.27Z"/><rect x="73.73" y="31.6" width="5.27" height="5.27"/><path d="M81.63,36.87h2.63v-2.63c0,1.45-1.18,2.63-2.63,2.63Z"/><path d="M79,34.24v2.63h2.63c-1.45,0-2.63-1.18-2.63-2.63Z"/><rect x="84.27" y="31.6" width="5.27" height="5.27"/><path d="M47.4,39.5c0,1.45,1.18,2.63,2.63,2.63h0c1.45,0,2.63-1.18,2.63-2.63s-1.18-2.63-2.63-2.63h0c-1.45,0-2.63,1.18-2.63,2.63Z"/><path d="M57.93,39.5c0,1.45,1.18,2.63,2.63,2.63h0c1.45,0,2.63-1.18,2.63-2.63s-1.18-2.63-2.63-2.63h0c-1.45,0-2.63,1.18-2.63,2.63Z"/><path d="M71.1,42.14h2.63v-2.63c0,1.45-1.18,2.63-2.63,2.63Z"/><rect x="73.73" y="36.87" width="5.27" height="5.27"/><rect x="79" y="36.87" width="5.27" height="5.27"/><rect x="84.27" y="36.87" width="5.27" height="5.27"/><path d="M89.53,39.5v2.63h2.63c-1.45,0-2.63-1.18-2.63-2.63Z"/><path d="M5.27,42.14h-2.63C1.18,42.14,0,43.31,0,44.77s1.18,2.63,2.63,2.63h2.63v-5.27Z"/><rect x="5.27" y="42.14" width="5.27" height="5.27"/><rect x="10.54" y="42.14" width="5.27" height="5.27"/><path d="M15.8,47.4h2.63c1.45,0,2.63-1.18,2.63-2.63s-1.18-2.63-2.63-2.63h-2.63v5.27Z"/><path d="M31.6,44.77c0,1.45,1.18,2.63,2.63,2.63h0c1.45,0,2.63-1.18,2.63-2.63s-1.18-2.63-2.63-2.63h0c-1.45,0-2.63,1.18-2.63,2.63Z"/><path d="M47.4,47.4v-2.63c0-1.45-1.18-2.63-2.63-2.63s-2.63,1.18-2.63,2.63h0v2.63h5.27Z"/><path d="M47.4,44.77v2.63h2.63c-1.45,0-2.63-1.18-2.63-2.63Z"/><path d="M73.73,42.14h-2.63c-1.45,0-2.63,1.18-2.63,2.63s1.18,2.63,2.63,2.63h2.63v-5.27Z"/><path d="M76.37,47.4h-2.63v-5.27h5.27v2.63c0,1.45-1.18,2.63-2.63,2.63Z"/><path d="M79,44.77v-2.63h2.63c-1.45,0-2.63,1.18-2.63,2.63Z"/><path d="M84.27,44.77v-2.63h-2.63c1.45,0,2.63,1.18,2.63,2.63Z"/><path d="M81.63,47.4h2.63v-2.63c0,1.45-1.18,2.63-2.63,2.63Z"/><rect x="84.27" y="42.14" width="5.27" height="5.27"/><path d="M94.8,44.77v2.63h-5.27v-5.27h2.63c1.45,0,2.63,1.18,2.63,2.63Z"/><path d="M102.7,47.4h2.63v-2.63c0,1.45-1.18,2.63-2.63,2.63Z"/><path d="M105.33,44.77v2.63h5.27v-5.27h-2.63c-1.45,0-2.63,1.18-2.63,2.63Z"/><rect x="110.6" y="42.14" width="5.27" height="5.27"/><path d="M115.86,47.4h2.63c1.45,0,2.63-1.18,2.63-2.63s-1.18-2.63-2.63-2.63h-2.63v5.27Z"/><path d="M131.66,47.4v-2.63c0-1.45-1.18-2.63-2.63-2.63s-2.63,1.18-2.63,2.63h0v2.63h5.27Z"/><path d="M5.27,50.03v-2.63h-2.63c1.45,0,2.63,1.18,2.63,2.63Z"/><rect x="5.27" y="47.4" width="5.27" height="5.27"/><path d="M10.54,50.03v-2.63h2.63c-1.45,0-2.63,1.18-2.63,2.63Z"/><path d="M26.34,50.03c0,1.45,1.18,2.63,2.63,2.63h0c1.45,0,2.63-1.18,2.63-2.63s-1.18-2.63-2.63-2.63h0c-1.45,0-2.63,1.18-2.63,2.63Z"/><path d="M44.77,52.67h2.63v-5.27h-5.27v2.63c0,1.45,1.18,2.63,2.63,2.63Z"/><path d="M47.4,52.67h2.63c1.45,0,2.63-1.18,2.63-2.63s-1.18-2.63-2.63-2.63h-2.63v5.27Z"/><path d="M84.27,47.4h-2.63c-1.45,0-2.63,1.18-2.63,2.63s1.18,2.63,2.63,2.63h2.63v-5.27Z"/><rect x="84.27" y="47.4" width="5.27" height="5.27"/><path d="M92.16,52.67h-2.63v-5.27h5.27v2.63c0,1.45-1.18,2.63-2.63,2.63Z"/><path d="M105.33,47.4h-2.63c-1.45,0-2.63,1.18-2.63,2.63s1.18,2.63,2.63,2.63h2.63v-5.27Z"/><path d="M107.96,52.67h-2.63v-5.27h5.27v2.63c0,1.45-1.18,2.63-2.63,2.63Z"/><path d="M110.6,50.03v-2.63h2.63c-1.45,0-2.63,1.18-2.63,2.63Z"/><path d="M123.76,52.67h2.63v-2.63c0,1.45-1.18,2.63-2.63,2.63Z"/><rect x="126.39" y="47.4" width="5.27" height="5.27"/><path d="M2.64,57.93h2.63v-2.63c0,1.45-1.18,2.63-2.63,2.63Z"/><rect x="5.27" y="52.67" width="5.27" height="5.27"/><path d="M21.07,52.67h-2.63c-1.45,0-2.63,1.18-2.63,2.63s1.18,2.63,2.63,2.63h2.63v-5.27Z"/><path d="M21.07,57.93h2.63c1.45,0,2.63-1.18,2.63-2.63s-1.18-2.63-2.63-2.63h-2.63v5.27Z"/><path d="M31.6,55.3c0,1.45,1.18,2.63,2.63,2.63h0c1.45,0,2.63-1.18,2.63-2.63s-1.18-2.63-2.63-2.63h0c-1.45,0-2.63,1.18-2.63,2.63Z"/><path d="M73.73,52.67h-2.63c-1.45,0-2.63,1.18-2.63,2.63s1.18,2.63,2.63,2.63h2.63v-5.27Z"/><path d="M79,55.3v2.63h-5.27v-5.27h2.63c1.45,0,2.63,1.18,2.63,2.63Z"/><path d="M79,55.3v2.63h2.63c-1.45,0-2.63-1.18-2.63-2.63Z"/><path d="M110.6,55.3v2.63h5.27v-5.27h-2.63c-1.45,0-2.63,1.18-2.63,2.63Z"/><rect x="115.86" y="52.67" width="5.27" height="5.27"/><rect x="121.13" y="52.67" width="5.27" height="5.27"/><rect x="126.39" y="52.67" width="5.27" height="5.27"/><path d="M5.27,57.93h-2.63C1.18,57.93,0,59.11,0,60.57s1.18,2.63,2.63,2.63h2.63v-5.27Z"/><rect x="5.27" y="57.93" width="5.27" height="5.27"/><path d="M10.54,60.57v2.63h2.63c-1.45,0-2.63-1.18-2.63-2.63Z"/><path d="M31.6,63.2v-2.63c0-1.45-1.18-2.63-2.63-2.63s-2.63,1.18-2.63,2.63h0v2.63h5.27Z"/><path d="M34.24,63.2h2.63v-2.63c0,1.45-1.18,2.63-2.63,2.63Z"/><path d="M31.6,60.57v2.63h2.63c-1.45,0-2.63-1.18-2.63-2.63Z"/><path d="M36.87,60.57v2.63h5.27v-5.27h-2.63c-1.45,0-2.63,1.18-2.63,2.63Z"/><path d="M42.14,63.2h2.63c1.45,0,2.63-1.18,2.63-2.63s-1.18-2.63-2.63-2.63h-2.63v5.27Z"/><path d="M57.93,60.57v2.63h5.27v-5.27h-2.63c-1.45,0-2.63,1.18-2.63,2.63Z"/><path d="M63.2,63.2h2.63c1.45,0,2.63-1.18,2.63-2.63s-1.18-2.63-2.63-2.63h-2.63v5.27Z"/><path d="M73.73,60.57v-2.63h-2.63c1.45,0,2.63,1.18,2.63,2.63Z"/><path d="M76.37,63.2h2.63v-5.27h-5.27v2.63c0,1.45,1.18,2.63,2.63,2.63Z"/><path d="M84.27,60.57v2.63h-5.27v-5.27h2.63c1.45,0,2.63,1.18,2.63,2.63Z"/><path d="M94.8,57.93h-2.63c-1.45,0-2.63,1.18-2.63,2.63s1.18,2.63,2.63,2.63h2.63v-5.27Z"/><rect x="94.8" y="57.93" width="5.27" height="5.27"/><path d="M105.33,60.57v2.63h-5.27v-5.27h2.63c1.45,0,2.63,1.18,2.63,2.63Z"/><path d="M107.96,63.2h2.63v-2.63c0,1.45-1.18,2.63-2.63,2.63Z"/><path d="M105.33,60.57v2.63h2.63c-1.45,0-2.63-1.18-2.63-2.63Z"/><rect x="110.6" y="57.93" width="5.27" height="5.27"/><path d="M118.5,63.2h-2.63v-5.27h5.27v2.63c0,1.45-1.18,2.63-2.63,2.63Z"/><path d="M121.13,60.57v-2.63h2.63c-1.45,0-2.63,1.18-2.63,2.63Z"/><path d="M126.39,60.57v-2.63h-2.63c1.45,0,2.63,1.18,2.63,2.63Z"/><path d="M123.76,63.2h2.63v-2.63c0,1.45-1.18,2.63-2.63,2.63Z"/><rect x="126.39" y="57.93" width="5.27" height="5.27"/><path d="M5.27,65.83v-2.63h-2.63c1.45,0,2.63,1.18,2.63,2.63Z"/><path d="M7.9,68.47h2.63v-5.27h-5.27v2.63c0,1.45,1.18,2.63,2.63,2.63Z"/><rect x="10.54" y="63.2" width="5.27" height="5.27"/><path d="M15.8,68.47h2.63c1.45,0,2.63-1.18,2.63-2.63s-1.18-2.63-2.63-2.63h-2.63v5.27Z"/><path d="M23.7,68.47h2.63v-2.63c0,1.45-1.18,2.63-2.63,2.63Z"/><rect x="26.34" y="63.2" width="5.27" height="5.27"/><rect x="31.6" y="63.2" width="5.27" height="5.27"/><rect x="36.87" y="63.2" width="5.27" height="5.27"/><path d="M42.14,65.83v-2.63h2.63c-1.45,0-2.63,1.18-2.63,2.63Z"/><path d="M52.67,68.47v-2.63c0-1.45-1.18-2.63-2.63-2.63s-2.63,1.18-2.63,2.63h0v2.63h5.27Z"/><path d="M55.3,68.47h2.63v-2.63c0,1.45-1.18,2.63-2.63,2.63Z"/><path d="M52.67,65.83v2.63h2.63c-1.45,0-2.63-1.18-2.63-2.63Z"/><rect x="57.93" y="63.2" width="5.27" height="5.27"/><path d="M63.2,65.83v-2.63h2.63c-1.45,0-2.63,1.18-2.63,2.63Z"/><path d="M79,65.83v-2.63h-2.63c1.45,0,2.63,1.18,2.63,2.63Z"/><path d="M76.37,68.47h2.63v-2.63c0,1.45-1.18,2.63-2.63,2.63Z"/><rect x="79" y="63.2" width="5.27" height="5.27"/><path d="M84.27,65.83v2.63h2.63c-1.45,0-2.63-1.18-2.63-2.63Z"/><path d="M94.8,65.83v-2.63h-2.63c1.45,0,2.63,1.18,2.63,2.63Z"/><path d="M97.43,68.47h2.63v-5.27h-5.27v2.63c0,1.45,1.18,2.63,2.63,2.63Z"/><rect x="100.06" y="63.2" width="5.27" height="5.27"/><rect x="105.33" y="63.2" width="5.27" height="5.27"/><rect x="110.6" y="63.2" width="5.27" height="5.27"/><path d="M115.86,65.83v-2.63h2.63c-1.45,0-2.63,1.18-2.63,2.63Z"/><path d="M121.13,65.83v2.63h5.27v-5.27h-2.63c-1.45,0-2.63,1.18-2.63,2.63Z"/><rect x="126.39" y="63.2" width="5.27" height="5.27"/><path d="M10.54,71.1v-2.63h-2.63c1.45,0,2.63,1.18,2.63,2.63Z"/><path d="M7.9,73.73h2.63v-2.63c0,1.45-1.18,2.63-2.63,2.63Z"/><rect x="10.54" y="68.47" width="5.27" height="5.27"/><path d="M15.8,71.1v-2.63h2.63c-1.45,0-2.63,1.18-2.63,2.63Z"/><path d="M21.07,71.1v2.63h5.27v-5.27h-2.63c-1.45,0-2.63,1.18-2.63,2.63Z"/><rect x="26.34" y="68.47" width="5.27" height="5.27"/><path d="M31.6,71.1v-2.63h2.63c-1.45,0-2.63,1.18-2.63,2.63Z"/><path d="M36.87,71.1v-2.63h-2.63c1.45,0,2.63,1.18,2.63,2.63Z"/><path d="M31.6,71.1v2.63h2.63c-1.45,0-2.63-1.18-2.63-2.63Z"/><path d="M36.87,68.47v2.63c0,1.45,1.18,2.63,2.63,2.63s2.63-1.18,2.63-2.63h0v-2.63h-5.27Z"/><rect x="47.4" y="68.47" width="5.27" height="5.27"/><rect x="52.67" y="68.47" width="5.27" height="5.27"/><path d="M60.57,73.73h-2.63v-5.27h5.27v2.63c0,1.45-1.18,2.63-2.63,2.63Z"/><path d="M79,68.47h-2.63c-1.45,0-2.63,1.18-2.63,2.63s1.18,2.63,2.63,2.63h2.63v-5.27Z"/><rect x="79" y="68.47" width="5.27" height="5.27"/><path d="M89.53,71.1v2.63h-5.27v-5.27h2.63c1.45,0,2.63,1.18,2.63,2.63Z"/><path d="M89.53,71.1v2.63h2.63c-1.45,0-2.63-1.18-2.63-2.63Z"/><path d="M100.06,71.1v-2.63h-2.63c1.45,0,2.63,1.18,2.63,2.63Z"/><rect x="100.06" y="68.47" width="5.27" height="5.27"/><path d="M105.33,71.1v-2.63h2.63c-1.45,0-2.63,1.18-2.63,2.63Z"/><path d="M110.6,71.1v-2.63h-2.63c1.45,0,2.63,1.18,2.63,2.63Z"/><path d="M107.96,73.73h2.63v-2.63c0,1.45-1.18,2.63-2.63,2.63Z"/><path d="M105.33,71.1v2.63h2.63c-1.45,0-2.63-1.18-2.63-2.63Z"/><rect x="110.6" y="68.47" width="5.27" height="5.27"/><rect x="121.13" y="68.47" width="5.27" height="5.27"/><path d="M129.03,73.73h-2.63v-5.27h5.27v2.63c0,1.45-1.18,2.63-2.63,2.63Z"/><path d="M10.54,73.73h-2.63c-1.45,0-2.63,1.18-2.63,2.63s1.18,2.63,2.63,2.63h2.63v-5.27Z"/><path d="M13.17,79h-2.63v-5.27h5.27v2.63c0,1.45-1.18,2.63-2.63,2.63Z"/><path d="M18.44,79h2.63v-2.63c0,1.45-1.18,2.63-2.63,2.63Z"/><rect x="21.07" y="73.73" width="5.27" height="5.27"/><rect x="26.34" y="73.73" width="5.27" height="5.27"/><path d="M31.6,79h2.63c1.45,0,2.63-1.18,2.63-2.63s-1.18-2.63-2.63-2.63h-2.63v5.27Z"/><rect x="47.4" y="73.73" width="5.27" height="5.27"/><rect x="52.67" y="73.73" width="5.27" height="5.27"/><path d="M57.93,76.37v-2.63h2.63c-1.45,0-2.63,1.18-2.63,2.63Z"/><path d="M68.47,79v-2.63c0-1.45-1.18-2.63-2.63-2.63s-2.63,1.18-2.63,2.63h0v2.63h5.27Z"/><path d="M79,76.37v-2.63h-2.63c1.45,0,2.63,1.18,2.63,2.63Z"/><path d="M81.63,79h2.63v-5.27h-5.27v2.63c0,1.45,1.18,2.63,2.63,2.63Z"/><rect x="84.27" y="73.73" width="5.27" height="5.27"/><path d="M94.8,76.37v2.63h-5.27v-5.27h2.63c1.45,0,2.63,1.18,2.63,2.63Z"/><path d="M102.7,79h2.63v-5.27h-5.27v2.63c0,1.45,1.18,2.63,2.63,2.63Z"/><rect x="105.33" y="73.73" width="5.27" height="5.27"/><path d="M113.23,79h-2.63v-5.27h5.27v2.63c0,1.45-1.18,2.63-2.63,2.63Z"/><rect x="121.13" y="73.73" width="5.27" height="5.27"/><path d="M126.39,76.37v-2.63h2.63c-1.45,0-2.63,1.18-2.63,2.63Z"/><path d="M126.39,76.37v2.63h2.63c-1.45,0-2.63-1.18-2.63-2.63Z"/><path d="M0,81.63c0,1.45,1.18,2.63,2.63,2.63h0c1.45,0,2.63-1.18,2.63-2.63s-1.18-2.63-2.63-2.63h0c-1.45,0-2.63,1.18-2.63,2.63Z"/><path d="M21.07,79h-2.63c-1.45,0-2.63,1.18-2.63,2.63s1.18,2.63,2.63,2.63h2.63v-5.27Z"/><rect x="21.07" y="79" width="5.27" height="5.27"/><rect x="26.34" y="79" width="5.27" height="5.27"/><path d="M31.6,81.63v-2.63h2.63c-1.45,0-2.63,1.18-2.63,2.63Z"/><path d="M31.6,81.63v2.63h2.63c-1.45,0-2.63-1.18-2.63-2.63Z"/><path d="M50.03,84.27h2.63v-5.27h-5.27v2.63c0,1.45,1.18,2.63,2.63,2.63Z"/><rect x="52.67" y="79" width="5.27" height="5.27"/><path d="M57.93,81.63v2.63h2.63c-1.45,0-2.63-1.18-2.63-2.63Z"/><path d="M63.2,79v2.63c0,1.45,1.18,2.63,2.63,2.63s2.63-1.18,2.63-2.63h0v-2.63h-5.27Z"/><path d="M79,84.27v-2.63c0-1.45-1.18-2.63-2.63-2.63s-2.63,1.18-2.63,2.63h0v2.63h5.27Z"/><path d="M89.53,81.63v-2.63h-2.63c1.45,0,2.63,1.18,2.63,2.63Z"/><path d="M86.9,84.27h2.63v-2.63c0,1.45-1.18,2.63-2.63,2.63Z"/><rect x="89.53" y="79" width="5.27" height="5.27"/><path d="M94.8,81.63v2.63h2.63c-1.45,0-2.63-1.18-2.63-2.63Z"/><rect x="121.13" y="79" width="5.27" height="5.27"/><path d="M126.39,84.27h2.63c1.45,0,2.63-1.18,2.63-2.63s-1.18-2.63-2.63-2.63h-2.63v5.27Z"/><path d="M10.54,86.9c0,1.45,1.18,2.63,2.63,2.63h0c1.45,0,2.63-1.18,2.63-2.63s-1.18-2.63-2.63-2.63h0c-1.45,0-2.63,1.18-2.63,2.63Z"/><path d="M26.34,86.9v-2.63h-2.63c1.45,0,2.63,1.18,2.63,2.63Z"/><path d="M28.97,89.53h2.63v-5.27h-5.27v2.63c0,1.45,1.18,2.63,2.63,2.63Z"/><path d="M31.6,89.53h2.63c1.45,0,2.63-1.18,2.63-2.63s-1.18-2.63-2.63-2.63h-2.63v5.27Z"/><path d="M47.4,89.53v-2.63c0-1.45-1.18-2.63-2.63-2.63s-2.63,1.18-2.63,2.63h0v2.63h5.27Z"/><path d="M52.67,86.9v-2.63h-2.63c1.45,0,2.63,1.18,2.63,2.63Z"/><rect x="52.67" y="84.27" width="5.27" height="5.27"/><path d="M57.93,89.53h2.63c1.45,0,2.63-1.18,2.63-2.63s-1.18-2.63-2.63-2.63h-2.63v5.27Z"/><path d="M73.73,84.27v2.63c0,1.45,1.18,2.63,2.63,2.63s2.63-1.18,2.63-2.63h0v-2.63h-5.27Z"/><path d="M81.63,89.53h2.63v-2.63c0,1.45-1.18,2.63-2.63,2.63Z"/><path d="M84.27,86.9v2.63h5.27v-5.27h-2.63c-1.45,0-2.63,1.18-2.63,2.63Z"/><rect x="89.53" y="84.27" width="5.27" height="5.27"/><rect x="94.8" y="84.27" width="5.27" height="5.27"/><rect x="100.06" y="84.27" width="5.27" height="5.27"/><path d="M110.6,86.9v2.63h-5.27v-5.27h2.63c1.45,0,2.63,1.18,2.63,2.63Z"/><path d="M110.6,86.9v2.63h2.63c-1.45,0-2.63-1.18-2.63-2.63Z"/><path d="M121.13,84.27v2.63c0,1.45,1.18,2.63,2.63,2.63s2.63-1.18,2.63-2.63h0v-2.63h-5.27Z"/><path d="M126.39,86.9v-2.63h2.63c-1.45,0-2.63,1.18-2.63,2.63Z"/><path d="M42.14,89.53v2.63c0,1.45,1.18,2.63,2.63,2.63s2.63-1.18,2.63-2.63h0v-2.63h-5.27Z"/><path d="M50.03,94.8h2.63v-2.63c0,1.45-1.18,2.63-2.63,2.63Z"/><rect x="52.67" y="89.53" width="5.27" height="5.27"/><path d="M57.93,92.16v-2.63h2.63c-1.45,0-2.63,1.18-2.63,2.63Z"/><path d="M60.57,94.8h2.63v-2.63c0,1.45-1.18,2.63-2.63,2.63Z"/><path d="M57.93,92.16v2.63h2.63c-1.45,0-2.63-1.18-2.63-2.63Z"/><path d="M63.2,92.16v2.63h5.27v-5.27h-2.63c-1.45,0-2.63,1.18-2.63,2.63Z"/><path d="M68.47,94.8h2.63c1.45,0,2.63-1.18,2.63-2.63s-1.18-2.63-2.63-2.63h-2.63v5.27Z"/><path d="M84.27,89.53h-2.63c-1.45,0-2.63,1.18-2.63,2.63s1.18,2.63,2.63,2.63h2.63v-5.27Z"/><rect x="84.27" y="89.53" width="5.27" height="5.27"/><path d="M89.53,92.16v-2.63h2.63c-1.45,0-2.63,1.18-2.63,2.63Z"/><path d="M105.33,92.16v-2.63h-2.63c1.45,0,2.63,1.18,2.63,2.63Z"/><rect x="105.33" y="89.53" width="5.27" height="5.27"/><rect x="110.6" y="89.53" width="5.27" height="5.27"/><path d="M121.13,92.16v2.63h-5.27v-5.27h2.63c1.45,0,2.63,1.18,2.63,2.63Z"/><path d="M121.13,92.16v2.63h2.63c-1.45,0-2.63-1.18-2.63-2.63Z"/><path d="M47.4,97.43v2.63h5.27v-5.27h-2.63c-1.45,0-2.63,1.18-2.63,2.63Z"/><rect x="52.67" y="94.8" width="5.27" height="5.27"/><rect x="57.93" y="94.8" width="5.27" height="5.27"/><rect x="63.2" y="94.8" width="5.27" height="5.27"/><path d="M68.47,97.43v-2.63h2.63c-1.45,0-2.63,1.18-2.63,2.63Z"/><path d="M71.1,100.06h2.63v-2.63c0,1.45-1.18,2.63-2.63,2.63Z"/><path d="M68.47,97.43v2.63h2.63c-1.45,0-2.63-1.18-2.63-2.63Z"/><path d="M79,100.06v-2.63c0-1.45-1.18-2.63-2.63-2.63s-2.63,1.18-2.63,2.63h0v2.63h5.27Z"/><path d="M84.27,97.43v-2.63h-2.63c1.45,0,2.63,1.18,2.63,2.63Z"/><path d="M81.63,100.06h2.63v-2.63c0,1.45-1.18,2.63-2.63,2.63Z"/><path d="M79,97.43v2.63h2.63c-1.45,0-2.63-1.18-2.63-2.63Z"/><rect x="84.27" y="94.8" width="5.27" height="5.27"/><path d="M94.8,97.43c0,1.45,1.18,2.63,2.63,2.63h0c1.45,0,2.63-1.18,2.63-2.63s-1.18-2.63-2.63-2.63h0c-1.45,0-2.63,1.18-2.63,2.63Z"/><rect x="105.33" y="94.8" width="5.27" height="5.27"/><path d="M110.6,97.43v-2.63h2.63c-1.45,0-2.63,1.18-2.63,2.63Z"/><path d="M115.86,97.43v-2.63h-2.63c1.45,0,2.63,1.18,2.63,2.63Z"/><path d="M118.5,100.06h2.63v-5.27h-5.27v2.63c0,1.45,1.18,2.63,2.63,2.63Z"/><rect x="121.13" y="94.8" width="5.27" height="5.27"/><path d="M131.66,97.43v2.63h-5.27v-5.27h2.63c1.45,0,2.63,1.18,2.63,2.63Z"/><rect x="47.4" y="100.06" width="5.27" height="5.27"/><rect x="52.67" y="100.06" width="5.27" height="5.27"/><path d="M57.93,102.7v-2.63h2.63c-1.45,0-2.63,1.18-2.63,2.63Z"/><path d="M63.2,102.7v-2.63h-2.63c1.45,0,2.63,1.18,2.63,2.63Z"/><path d="M57.93,102.7v2.63h2.63c-1.45,0-2.63-1.18-2.63-2.63Z"/><path d="M65.83,105.33h2.63v-5.27h-5.27v2.63c0,1.45,1.18,2.63,2.63,2.63Z"/><rect x="68.47" y="100.06" width="5.27" height="5.27"/><rect x="73.73" y="100.06" width="5.27" height="5.27"/><rect x="79" y="100.06" width="5.27" height="5.27"/><rect x="84.27" y="100.06" width="5.27" height="5.27"/><path d="M89.53,102.7v2.63h2.63c-1.45,0-2.63-1.18-2.63-2.63Z"/><path d="M102.7,105.33h2.63v-2.63c0,1.45-1.18,2.63-2.63,2.63Z"/><rect x="105.33" y="100.06" width="5.27" height="5.27"/><path d="M121.13,102.7v-2.63h-2.63c1.45,0,2.63,1.18,2.63,2.63Z"/><path d="M123.76,105.33h2.63v-5.27h-5.27v2.63c0,1.45,1.18,2.63,2.63,2.63Z"/><rect x="126.39" y="100.06" width="5.27" height="5.27"/><path d="M44.77,110.6h2.63v-2.63c0,1.45-1.18,2.63-2.63,2.63Z"/><rect x="47.4" y="105.33" width="5.27" height="5.27"/><rect x="52.67" y="105.33" width="5.27" height="5.27"/><path d="M57.93,110.6h2.63c1.45,0,2.63-1.18,2.63-2.63s-1.18-2.63-2.63-2.63h-2.63v5.27Z"/><path d="M68.47,107.96v-2.63h-2.63c1.45,0,2.63,1.18,2.63,2.63Z"/><path d="M68.47,105.33v2.63c0,1.45,1.18,2.63,2.63,2.63s2.63-1.18,2.63-2.63h0v-2.63h-5.27Z"/><path d="M73.73,107.96v-2.63h2.63c-1.45,0-2.63,1.18-2.63,2.63Z"/><path d="M79,107.96v-2.63h-2.63c1.45,0,2.63,1.18,2.63,2.63Z"/><path d="M76.37,110.6h2.63v-2.63c0,1.45-1.18,2.63-2.63,2.63Z"/><rect x="79" y="105.33" width="5.27" height="5.27"/><rect x="84.27" y="105.33" width="5.27" height="5.27"/><rect x="89.53" y="105.33" width="5.27" height="5.27"/><rect x="94.8" y="105.33" width="5.27" height="5.27"/><rect x="100.06" y="105.33" width="5.27" height="5.27"/><rect x="105.33" y="105.33" width="5.27" height="5.27"/><path d="M115.86,107.96c0,1.45,1.18,2.63,2.63,2.63h0c1.45,0,2.63-1.18,2.63-2.63s-1.18-2.63-2.63-2.63h0c-1.45,0-2.63,1.18-2.63,2.63Z"/><path d="M126.39,107.96v-2.63h-2.63c1.45,0,2.63,1.18,2.63,2.63Z"/><path d="M123.76,110.6h2.63v-2.63c0,1.45-1.18,2.63-2.63,2.63Z"/><rect x="126.39" y="105.33" width="5.27" height="5.27"/><path d="M42.14,113.23v2.63h5.27v-5.27h-2.63c-1.45,0-2.63,1.18-2.63,2.63Z"/><rect x="47.4" y="110.6" width="5.27" height="5.27"/><rect x="52.67" y="110.6" width="5.27" height="5.27"/><path d="M57.93,113.23v-2.63h2.63c-1.45,0-2.63,1.18-2.63,2.63Z"/><path d="M57.93,113.23v2.63h2.63c-1.45,0-2.63-1.18-2.63-2.63Z"/><path d="M63.2,113.23c0,1.45,1.18,2.63,2.63,2.63h0c1.45,0,2.63-1.18,2.63-2.63s-1.18-2.63-2.63-2.63h0c-1.45,0-2.63,1.18-2.63,2.63Z"/><path d="M79,110.6h-2.63c-1.45,0-2.63,1.18-2.63,2.63s1.18,2.63,2.63,2.63h2.63v-5.27Z"/><rect x="79" y="110.6" width="5.27" height="5.27"/><path d="M86.9,115.86h-2.63v-5.27h5.27v2.63c0,1.45-1.18,2.63-2.63,2.63Z"/><path d="M89.53,113.23v-2.63h2.63c-1.45,0-2.63,1.18-2.63,2.63Z"/><path d="M94.8,113.23v-2.63h-2.63c1.45,0,2.63,1.18,2.63,2.63Z"/><path d="M92.16,115.86h2.63v-2.63c0,1.45-1.18,2.63-2.63,2.63Z"/><rect x="94.8" y="110.6" width="5.27" height="5.27"/><path d="M100.06,113.23v-2.63h2.63c-1.45,0-2.63,1.18-2.63,2.63Z"/><path d="M105.33,113.23v-2.63h-2.63c1.45,0,2.63,1.18,2.63,2.63Z"/><path d="M105.33,110.6v2.63c0,1.45,1.18,2.63,2.63,2.63s2.63-1.18,2.63-2.63h0v-2.63h-5.27Z"/><path d="M118.5,115.86h2.63v-2.63c0,1.45-1.18,2.63-2.63,2.63Z"/><path d="M121.13,113.23v2.63h5.27v-5.27h-2.63c-1.45,0-2.63,1.18-2.63,2.63Z"/><path d="M129.03,115.86h-2.63v-5.27h5.27v2.63c0,1.45-1.18,2.63-2.63,2.63Z"/><rect x="42.14" y="115.86" width="5.27" height="5.27"/><rect x="47.4" y="115.86" width="5.27" height="5.27"/><rect x="52.67" y="115.86" width="5.27" height="5.27"/><path d="M57.93,121.13h2.63c1.45,0,2.63-1.18,2.63-2.63s-1.18-2.63-2.63-2.63h-2.63v5.27Z"/><path d="M73.73,121.13v-2.63c0-1.45-1.18-2.63-2.63-2.63s-2.63,1.18-2.63,2.63h0v2.63h5.27Z"/><path d="M79,118.5v-2.63h-2.63c1.45,0,2.63,1.18,2.63,2.63Z"/><rect x="79" y="115.86" width="5.27" height="5.27"/><path d="M84.27,118.5v-2.63h2.63c-1.45,0-2.63,1.18-2.63,2.63Z"/><path d="M89.53,118.5v2.63h5.27v-5.27h-2.63c-1.45,0-2.63,1.18-2.63,2.63Z"/><path d="M97.43,121.13h-2.63v-5.27h5.27v2.63c0,1.45-1.18,2.63-2.63,2.63Z"/><path d="M115.86,115.86h-2.63c-1.45,0-2.63,1.18-2.63,2.63s1.18,2.63,2.63,2.63h2.63v-5.27Z"/><rect x="115.86" y="115.86" width="5.27" height="5.27"/><rect x="121.13" y="115.86" width="5.27" height="5.27"/><path d="M126.39,118.5v-2.63h2.63c-1.45,0-2.63,1.18-2.63,2.63Z"/><path d="M126.39,118.5v2.63h2.63c-1.45,0-2.63-1.18-2.63-2.63Z"/><rect x="42.14" y="121.13" width="5.27" height="5.27"/><path d="M47.4,123.76v-2.63h2.63c-1.45,0-2.63,1.18-2.63,2.63Z"/><path d="M47.4,123.76v2.63h2.63c-1.45,0-2.63-1.18-2.63-2.63Z"/><path d="M68.47,121.13v2.63c0,1.45,1.18,2.63,2.63,2.63s2.63-1.18,2.63-2.63h0v-2.63h-5.27Z"/><rect x="79" y="121.13" width="5.27" height="5.27"/><path d="M89.53,121.13v2.63c0,1.45,1.18,2.63,2.63,2.63s2.63-1.18,2.63-2.63h0v-2.63h-5.27Z"/><path d="M94.8,123.76v-2.63h2.63c-1.45,0-2.63,1.18-2.63,2.63Z"/><path d="M105.33,123.76c0,1.45,1.18,2.63,2.63,2.63h0c1.45,0,2.63-1.18,2.63-2.63s-1.18-2.63-2.63-2.63h0c-1.45,0-2.63,1.18-2.63,2.63Z"/><path d="M115.86,123.76v-2.63h-2.63c1.45,0,2.63,1.18,2.63,2.63Z"/><rect x="115.86" y="121.13" width="5.27" height="5.27"/><rect x="121.13" y="121.13" width="5.27" height="5.27"/><path d="M131.66,123.76v2.63h-5.27v-5.27h2.63c1.45,0,2.63,1.18,2.63,2.63Z"/><path d="M44.77,131.66h2.63v-5.27h-5.27v2.63c0,1.45,1.18,2.63,2.63,2.63Z"/><path d="M47.4,131.66h2.63c1.45,0,2.63-1.18,2.63-2.63s-1.18-2.63-2.63-2.63h-2.63v5.27Z"/><path d="M79,126.39v2.63c0,1.45,1.18,2.63,2.63,2.63s2.63-1.18,2.63-2.63h0v-2.63h-5.27Z"/><path d="M118.5,131.66h2.63v-5.27h-5.27v2.63c0,1.45,1.18,2.63,2.63,2.63Z"/><rect x="121.13" y="126.39" width="5.27" height="5.27"/><path d="M129.03,131.66h-2.63v-5.27h5.27v2.63c0,1.45-1.18,2.63-2.63,2.63Z"/><path d="M1.12,0C.51,0,0,.51,0,1.12v34.63c0,.62.5,1.12,1.12,1.12h34.63c.62,0,1.12-.5,1.12-1.12V1.12C36.87.51,36.37,0,35.75,0H1.12ZM31.6,10.54v20.42c0,.36-.29.64-.64.64H5.91c-.36,0-.64-.29-.64-.64V5.91c0-.36.29-.64.64-.64h25.05c.36,0,.64.29.64.64v4.62Z"/><path class="cls-1" d="M26.34,21.07v-9.42c0-.62-.5-1.12-1.12-1.12h-13.56c-.62,0-1.12.5-1.12,1.12v13.57c0,.62.5,1.12,1.12,1.12h13.56c.62,0,1.12-.5,1.12-1.12v-4.15Z"/><path d="M95.91,0c-.62,0-1.12.51-1.12,1.12v34.63c0,.62.5,1.12,1.12,1.12h34.63c.62,0,1.12-.5,1.12-1.12V1.12C131.67.51,131.17,0,130.54,0h-34.63ZM126.39,10.54v20.42c0,.36-.29.64-.64.64h-25.05c-.36,0-.64-.29-.64-.64V5.91c0-.36.29-.64.64-.64h25.05c.36,0,.64.29.64.64v4.62Z"/><path class="cls-1" d="M121.13,21.07v-9.42c0-.62-.5-1.12-1.12-1.12h-13.56c-.62,0-1.12.5-1.12,1.12v13.57c0,.62.5,1.12,1.12,1.12h13.56c.62,0,1.12-.5,1.12-1.12v-4.15Z"/><path d="M1.12,94.79c-.62,0-1.12.51-1.12,1.12v34.63c0,.62.5,1.12,1.12,1.12h34.63c.62,0,1.12-.5,1.12-1.12v-34.63c0-.62-.5-1.12-1.12-1.12H1.12ZM31.6,105.33v20.42c0,.36-.29.64-.64.64H5.91c-.36,0-.64-.29-.64-.64v-25.05c0-.36.29-.64.64-.64h25.05c.36,0,.64.29.64.64v4.62Z"/><path class="cls-1" d="M26.34,115.86v-9.42c0-.62-.5-1.12-1.12-1.12h-13.56c-.62,0-1.12.5-1.12,1.12v13.57c0,.62.5,1.12,1.12,1.12h13.56c.62,0,1.12-.5,1.12-1.12v-4.15Z"/></g></svg>