<?xml version="1.0" encoding="UTF-8"?><svg id="Layer_2" xmlns="http://www.w3.org/2000/svg" viewBox="0 0 146.74 157.31"><defs><style>.cls-1{fill:#0a0139;}</style></defs><g id="Layer_1-2"><path class="cls-1" d="M120.86,84.96c-.59-.19-1.18-.29-1.81-.39-.52-.09-1.37-.28-1.84-.42-.29-.08-.56-.19-.78-.3-.23-.5-.66-.89-1.2-1.07,0,0-.02,0-.02,0-.13-.18-.27-.34-.44-.48.71-3.09,1.07-6.28,1.07-9.49s-.36-6.4-1.07-9.49c.17-.14.32-.3.44-.48,0,0,.01,0,.01,0,.55-.18.98-.57,1.21-1.07.23-.1.5-.21.79-.3.47-.14,1.32-.33,1.84-.42.59-.1,1.21-.2,1.81-.4,2.67-.87,3.38-2.8,2.92-4.21-.39-1.21-1.61-1.99-3.1-1.99-.55,0-1.14.1-1.75.3-.59.19-1.15.47-1.7.74-.47.23-1.27.57-1.74.74-.28.1-.56.17-.81.22-.48-.27-1.07-.33-1.6-.16,0,0-.01,0-.02,0-.21-.07-.42-.12-.64-.13-2.14-5.01-5.18-9.5-9.04-13.37-.67-.67-1.38-1.34-2.12-1.98.06-.22.08-.44.08-.66,0,0,0,0,.01-.02.33-.46.45-1.03.34-1.57.12-.22.28-.47.46-.7.31-.4.88-1.06,1.25-1.43.42-.43.86-.88,1.23-1.38.7-.96,1.05-1.97,1.02-2.9-.03-.92-.45-1.73-1.13-2.23-.46-.33-1.02-.51-1.61-.51-.7,0-2.04.26-3.31,1.99-.36.5-.63,1.02-.94,1.6-.24.46-.69,1.2-.97,1.62-.15.21-.32.43-.53.65-.55.06-1.06.36-1.39.81h0c-.21.08-.41.17-.6.29-1.7-1.02-3.48-1.92-5.29-2.69-4.07-1.72-8.35-2.79-12.76-3.17-.08-.21-.19-.4-.32-.58v-.02c0-.57-.24-1.1-.64-1.47-.04-.29-.05-.58-.04-.84.01-.51.09-1.37.17-1.89.09-.6.18-1.21.18-1.85,0-2.03-1.07-4.09-3.1-4.09-1.5,0-3.1,1.28-3.1,4.09,0,.62.09,1.21.18,1.85.08.51.15,1.37.17,1.89,0,.25,0,.54-.04.83-.4.38-.65.91-.65,1.48h0c-.13.2-.24.39-.32.6-4.41.38-8.69,1.45-12.76,3.17-1.82.77-3.59,1.67-5.29,2.69-.19-.12-.39-.21-.6-.28,0,0,0,0,0,0-.33-.46-.84-.75-1.39-.82-.17-.19-.36-.41-.53-.65-.29-.42-.73-1.17-.97-1.63-.28-.54-.57-1.09-.94-1.6-1.26-1.73-2.61-1.99-3.31-1.99-.59,0-1.15.18-1.61.51-.69.5-1.1,1.31-1.13,2.23-.03.93.32,1.93,1.02,2.89.36.5.81.95,1.24,1.39.37.38.94,1.03,1.24,1.43.18.23.33.48.45.7-.11.54.01,1.11.34,1.57,0,0,.01.01.02.02,0,.22.02.45.08.66-.74.64-1.45,1.31-2.12,1.98-3.86,3.86-6.91,8.36-9.05,13.37-.22.01-.43.06-.64.13,0,0-.02,0-.02,0-.53-.17-1.12-.11-1.6.16-.25-.05-.53-.12-.81-.22-.47-.17-1.27-.51-1.74-.74-.54-.27-1.1-.55-1.7-.75-.61-.2-1.19-.3-1.74-.3-1.49,0-2.71.78-3.1,1.99-.26.81-.12,1.7.39,2.47.52.77,1.4,1.38,2.53,1.75.6.19,1.22.29,1.81.4.52.08,1.36.28,1.85.42.28.08.55.19.78.29.23.5.66.9,1.21,1.07,0,0,0,0,.01,0,.12.18.27.34.44.48-.71,3.1-1.07,6.29-1.07,9.49s.36,6.4,1.07,9.49c-.17.14-.32.3-.44.48,0,0-.01,0-.01,0-.55.18-.98.57-1.21,1.07-.22.1-.5.21-.78.3-.48.14-1.33.33-1.85.42-.63.11-1.22.21-1.81.4-2.67.87-3.39,2.8-2.92,4.21.39,1.21,1.61,1.99,3.1,1.99.55,0,1.14-.1,1.74-.3.59-.19,1.15-.47,1.71-.74.46-.23,1.26-.57,1.74-.74.29-.1.57-.17.81-.22.3.17.63.26.98.26.21,0,.42-.03.6-.1.01,0,.02,0,.03,0,.21.07.42.12.64.13,2.14,5.01,5.18,9.51,9.05,13.37.67.67,1.38,1.34,2.12,1.98-.06.21-.08.44-.08.66,0,0,0,.01,0,.01-.34.46-.46,1.04-.35,1.58-.12.22-.28.47-.46.7-.31.4-.87,1.05-1.24,1.43l-.03.03c-.42.42-.85.86-1.2,1.36-.7.96-1.05,1.96-1.02,2.9.03.92.45,1.73,1.13,2.23.46.34,1.02.51,1.61.51.69,0,2.05-.26,3.31-1.99.36-.49.64-1.03.92-1.56l.02-.04c.24-.46.68-1.2.97-1.63.17-.25.36-.47.53-.65.55-.07,1.06-.36,1.39-.81,0,0,0,0,.01-.02.21-.06.41-.16.6-.27,1.7,1.02,3.47,1.92,5.29,2.69,4.07,1.72,8.35,2.79,12.76,3.17.08.21.19.4.32.58v.02c0,.57.24,1.1.65,1.48.03.3.05.58.04.83-.01.51-.09,1.37-.17,1.9-.09.63-.18,1.22-.18,1.83,0,2.81,1.61,4.08,3.1,4.08,2.04,0,3.1-2.05,3.1-4.08,0-.64-.1-1.28-.18-1.85-.08-.52-.16-1.38-.17-1.89,0-.26,0-.54.04-.84.4-.38.64-.91.64-1.48v-.02c.13-.18.24-.37.32-.58,4.4-.38,8.69-1.45,12.76-3.17,1.81-.77,3.59-1.67,5.29-2.69.18.12.38.21.6.27,0,0,0,.01,0,.01.33.46.84.75,1.39.82.17.19.36.41.52.65.29.42.73,1.16.97,1.63l.03.05c.27.52.56,1.06.91,1.55,1.26,1.73,2.61,1.99,3.31,1.99.59,0,1.14-.17,1.6-.51,1.21-.88,1.76-2.86.11-5.13-.36-.5-.8-.95-1.23-1.39-.37-.37-.94-1.03-1.25-1.43-.18-.23-.33-.48-.46-.7.1-.54-.01-1.11-.35-1.58,0,0,0,0,0,0,0-.22-.02-.45-.08-.66.73-.64,1.45-1.3,2.12-1.98,3.87-3.86,6.91-8.36,9.04-13.37.22-.01.44-.06.64-.13h.01c.54.18,1.13.11,1.61-.15.24.05.52.12.81.22.48.17,1.28.51,1.76.76.54.27,1.09.54,1.68.73.61.2,1.19.3,1.74.3h0c1.49,0,2.71-.78,3.1-1.99.46-1.42-.26-3.35-2.93-4.22ZM76.39,102.25l.89-9.3c.07-.69-.11-1.39-.5-1.95.01-.1.02-.19.02-.29s0-.2-.02-.3c.33-.49.51-1.07.51-1.67,0-.45-.1-.9-.3-1.3.17-.3.27-.64.29-.99.31-.09.62-.19.93-.3.23.27.51.48.82.63.08.44.25.85.52,1.22.35.48.84.85,1.39,1.05.04.09.1.17.16.26.06.08.12.15.19.22.02.69.28,1.35.74,1.87l6.19,7c-.01.44.12.87.38,1.23,0,0,0,.02.01.02,0,.09,0,.17,0,.26-1.02.57-2.08,1.09-3.16,1.55-2.73,1.15-5.59,1.9-8.53,2.24-.04-.07-.09-.14-.14-.21v-.02c0-.45-.15-.88-.41-1.23ZM76.81,42.1c.05-.07.1-.13.14-.21,2.94.33,5.81,1.09,8.53,2.24,1.07.45,2.14.97,3.16,1.55,0,.08-.01.17,0,.26h0c-.26.37-.39.81-.39,1.25l-6.19,7c-.46.52-.72,1.19-.75,1.87-.07.07-.13.14-.19.22-.06.08-.12.17-.16.26-.56.2-1.04.56-1.39,1.04-.27.37-.45.79-.52,1.23-.31.15-.59.36-.82.62-.31-.11-.62-.21-.93-.3-.03-.35-.13-.68-.29-.99.19-.4.3-.84.3-1.29,0-.6-.18-1.18-.51-1.67.02-.1.02-.2.02-.3s0-.19-.02-.29c.39-.57.57-1.26.5-1.95l-.89-9.3c.27-.35.41-.77.41-1.23v-.02ZM101.5,60.04s-.01,0-.02,0c-.42.14-.78.41-1.03.77l-9.12,2.03c-.68.15-1.29.54-1.71,1.08-.1.01-.19.04-.28.07-.1.03-.19.07-.28.11-.56-.16-1.18-.16-1.74.03-.43.14-.82.37-1.14.68-.34-.06-.7-.05-1.03.03-.18-.27-.37-.53-.57-.79.19-.3.3-.63.35-.98.39-.21.73-.51,1-.88.35-.48.54-1.06.56-1.65.07-.07.13-.14.19-.23.06-.08.11-.16.16-.25.65-.23,1.2-.69,1.55-1.28l4.75-8.05c.42-.12.79-.39,1.06-.75h0c.08-.03.16-.06.24-.09.32.3.64.6.94.9,2.64,2.64,4.75,5.67,6.29,9.04-.06.06-.11.13-.16.2ZM102.32,79.02l-8.57-3.72c-.38-.16-.77-.25-1.18-.25-.28,0-.56.04-.83.12-.09-.04-.18-.08-.28-.11-.09-.03-.19-.05-.28-.07-.36-.47-.86-.82-1.43-1-.43-.14-.88-.18-1.32-.12-.23-.25-.52-.45-.85-.58,0-.17,0-.33,0-.49s0-.33,0-.49c.32-.13.61-.33.85-.58.45.06.9.02,1.32-.12.57-.19,1.06-.54,1.43-1,.1-.01.2-.04.29-.07.09-.03.18-.07.27-.11.66.19,1.38.15,2.01-.13l8.57-3.72c.41.14.87.15,1.3.01h0c.08.02.17.05.25.07.4,2.01.6,4.07.6,6.15s-.2,4.14-.6,6.15c-.08.02-.17.04-.25.07h0c-.43-.14-.89-.13-1.3,0ZM93.13,94.85l-4.75-8.05c-.35-.6-.91-1.06-1.55-1.29-.04-.08-.1-.17-.15-.24-.06-.08-.13-.16-.2-.23-.02-.59-.21-1.17-.56-1.65-.27-.37-.61-.66-1-.87-.04-.34-.16-.68-.35-.98.2-.26.39-.52.57-.79.34.08.69.09,1.03.03.32.31.71.54,1.14.68.56.18,1.18.19,1.74.03.09.04.18.08.28.11.09.03.19.05.28.07.42.54,1.02.93,1.7,1.07l9.13,2.03c.25.36.61.64,1.03.77,0,0,.01,0,.02,0,.05.07.1.14.16.21-1.54,3.36-3.66,6.4-6.29,9.04-.3.3-.62.6-.94.9-.08-.03-.15-.06-.23-.08,0,0,0,0-.01-.02-.26-.36-.64-.62-1.05-.75ZM93.5,96.56h0s0,0,0,0ZM69.93,103.49c-.05.07-.1.14-.14.21-2.94-.33-5.81-1.09-8.53-2.24-1.08-.46-2.14-.98-3.16-1.55,0-.08.01-.17,0-.26h0c.26-.37.39-.81.38-1.25l6.19-7c.46-.52.72-1.19.75-1.88.07-.07.13-.14.19-.22.06-.08.11-.17.16-.26.56-.2,1.04-.56,1.4-1.05.27-.37.44-.79.52-1.22.31-.15.59-.36.81-.63.31.11.62.21.93.3.03.35.13.68.29.99-.19.4-.3.84-.3,1.3,0,.6.18,1.18.51,1.67-.02.1-.02.2-.02.3s0,.19.02.29c-.38.57-.57,1.26-.5,1.95l.89,9.3c-.27.35-.41.77-.41,1.23v.02ZM70.34,43.34l-.89,9.3c-.07.7.11,1.39.5,1.96-.01.1-.02.19-.02.29s0,.2.02.3c-.33.49-.51,1.07-.51,1.66,0,.45.1.89.3,1.29-.16.3-.27.64-.29.99-.32.09-.63.19-.93.3-.23-.27-.5-.48-.82-.62-.08-.44-.25-.86-.52-1.22-.35-.49-.84-.85-1.4-1.05-.05-.09-.1-.17-.16-.25-.06-.08-.12-.15-.19-.23-.02-.68-.28-1.35-.74-1.87l-6.19-7c.01-.44-.12-.87-.39-1.24,0,0,0,0,0,0,0-.09,0-.17-.01-.26,1.03-.58,2.09-1.1,3.16-1.55,2.72-1.15,5.59-1.91,8.53-2.24.04.07.09.14.14.21v.02c0,.45.15.88.42,1.22ZM61.82,63.08c.04.34.16.68.35.98-.2.25-.39.52-.57.79-.19-.05-.39-.07-.59-.07-.15,0-.3.01-.45.04-.32-.31-.71-.54-1.14-.68-.56-.18-1.18-.19-1.74-.02-.09-.05-.18-.08-.28-.11-.09-.03-.19-.06-.28-.07-.42-.54-1.02-.93-1.7-1.08l-9.12-2.03c-.25-.36-.61-.63-1.03-.77,0,0-.01,0-.02,0-.05-.07-.1-.14-.16-.2,1.54-3.36,3.66-6.4,6.29-9.04.3-.3.61-.6.94-.9.07.03.15.06.23.08,0,0,0,.01.01.02.26.36.64.62,1.05.74l4.75,8.05c.35.6.91,1.05,1.55,1.29.05.09.1.17.16.25.06.08.12.16.19.23.02.59.21,1.16.57,1.65.27.37.61.66,1,.87ZM44.42,66.57l8.57,3.72c.63.28,1.36.32,2.01.13.09.04.18.08.27.11.09.03.19.06.29.07.36.46.86.81,1.42,1,.42.14.88.18,1.33.12.23.25.52.45.85.58,0,.17,0,.33,0,.49s0,.33,0,.49c-.32.13-.61.33-.85.58-.44-.06-.9-.02-1.32.12-.57.18-1.07.54-1.43,1-.1.02-.2.04-.3.07-.09.03-.18.07-.27.11-.66-.19-1.38-.15-2.01.13l-8.57,3.72c-.21-.08-.44-.12-.67-.12-.21,0-.42.04-.62.1,0,0-.02,0-.02,0-.08-.03-.16-.05-.25-.07-.4-2.01-.61-4.07-.61-6.15s.2-4.14.61-6.15c.08-.02.16-.04.25-.07,0,0,.01,0,.02,0,.42.14.88.13,1.29-.02ZM45.24,85.55s.01,0,.02,0c.42-.14.79-.41,1.04-.77l9.12-2.03c.68-.15,1.28-.53,1.7-1.07.1-.02.19-.04.29-.07.09-.03.19-.07.27-.11.56.16,1.18.15,1.74-.03.44-.14.82-.37,1.14-.68.34.07.7.06,1.03-.03.18.27.37.53.58.79-.19.3-.3.63-.35.98-.39.21-.74.51-1,.87-.35.48-.55,1.06-.57,1.65-.07.07-.14.15-.19.23-.06.08-.11.16-.15.25-.64.23-1.2.69-1.55,1.29l-4.75,8.05c-.42.13-.79.39-1.06.75,0,0,0,0,0,0-.08.02-.16.05-.23.08-.32-.3-.64-.6-.94-.9-2.64-2.64-4.75-5.68-6.29-9.04.05-.07.11-.13.16-.21Z"/><path class="cls-1" d="M74.55,157.19c-.78.16-1.58.16-2.35,0h0c-25.33-5.23-49.16-23.62-62.2-48C-1.27,88.15-.39,66.02.45,44.62c.28-7.09.57-14.43.43-21.71h0c-.04-2.32,1.28-4.44,3.39-5.42l9.12-4.23c38.12-17.68,81.84-17.69,119.96,0l9.12,4.23c2.1.98,3.43,3.1,3.39,5.42h0c-.14,7.28.15,14.61.43,21.7.85,21.4,1.72,43.54-9.53,64.57-13.04,24.38-36.88,42.77-62.2,48h0ZM15.98,24.96c-2.05.95-3.36,3.01-3.39,5.27-.07,5.03-.26,10-.45,14.85-.82,20.75-1.59,40.36,8.16,58.59,11,20.57,30.63,36.26,51.69,41.48.9.22,1.85.22,2.75,0,21.06-5.22,40.69-20.91,51.69-41.48,9.75-18.23,8.98-37.84,8.16-58.59-.19-4.85-.39-9.81-.45-14.84-.03-2.26-1.33-4.32-3.39-5.27l-2.33-1.08C93.44,7.65,53.3,7.65,18.32,23.88l-2.33,1.08Z"/></g></svg>